<svg width="28" height="31" viewBox="0 0 28 31" xmlns="http://www.w3.org/2000/svg">
    <path d="M20 0c2.842 0 5.548.596 8 1.67v1.951a18.12 18.12 0 0 0-8-1.851C9.947 1.77 1.77 9.948 1.77 20c0 4.127 1.379 7.94 3.7 10.998L3.305 31a19.884 19.884 0 0 1-3.304-11C0 8.972 8.972 0 20 0zm6.51 10.526c.474 0 .857.388.857.867a.864.864 0 0 1-.75.86l-.108.007h-4.715c.21.213.408.438.584.686a6.278 6.278 0 0 1 1.022 2.326l.058.307h3.051c.474 0 .858.388.858.867a.864.864 0 0 1-.75.86l-.108.007h-3.041a5.539 5.539 0 0 1-.223.998c-.538 1.612-1.747 2.785-3.405 3.3-1.179.366-2.383.488-3.582.512l-.45.005 8.482 7.624a7.967 7.967 0 0 1-1.679.81L12.92 21.85a.873.873 0 0 1-.227-.97.855.855 0 0 1 .707-.542l.118-.002.386.013c1.837.066 3.734.132 5.433-.395 1.116-.348 1.927-1.128 2.283-2.198l.066-.22.052-.223h-8.248a.862.862 0 0 1-.858-.867c0-.442.327-.806.75-.86l.108-.007h8.217a4.535 4.535 0 0 0-.722-1.623 4.005 4.005 0 0 0-3.024-1.69l-.225-.006H13.49a.862.862 0 0 1-.858-.867c0-.442.327-.807.75-.86l.108-.007h13.02z" fill="#F8E6B2" fill-rule="evenodd"/>
</svg>
