<svg width="129" height="96" viewBox="0 0 129 96" xmlns="http://www.w3.org/2000/svg" xmlns:xlink="http://www.w3.org/1999/xlink">
    <defs>
        <path id="3c6jgznx4a" d="M0 .19h128.213v88.467H0z"/>
    </defs>
    <g fill="none" fill-rule="evenodd">
        <g transform="translate(0 6.443)">
            <mask id="kblbnfvcub" fill="#fff">
                <use xlink:href="#3c6jgznx4a"/>
            </mask>
            <path d="M1.3 10.057c-8.64 25.15 27.675 68.01 52.914 76.497 25.24 8.49 61.795-9.86 70.435-35.011 8.64-25.151 3.843-45.765-39.98-39.231C58.27 16.252 9.942-15.095 1.3 10.057" fill="#F5E6DC" fill-rule="nonzero" mask="url(#kblbnfvcub)"/>
        </g>
        <path fill="#D6D6D6" fill-rule="nonzero" d="M34.446 37.438 55.027 49.55l47.547-7.198L81.64 29.89z"/>
        <path d="m34.446 74.654 20.758 12.288V49.55L34.446 37.438v37.216zm68.128 4.915-47.37 7.373V49.55l47.37-7.198V79.57z" fill="#FA4714" fill-rule="nonzero"/>
        <path fill="#EDEDED" fill-rule="nonzero" d="m26.818 28.486 7.628 8.952 47.194-7.549-7.63-8.952z"/>
        <path d="m89.8 22.517-8.161 7.372 20.935 12.465 7.807-7.372L89.8 22.517zm-55.354 14.92-7.628 7.198 20.935 13.342 7.451-8.426-20.758-12.113z" fill="#EDEDED" fill-rule="nonzero"/>
        <path d="M78.777 43.863s3.358-.175 5.833-3.148c1.06 4.723 4.595 5.422 4.595 5.422s-4.596-.35-5.655 2.274c-.885-3.148-4.772-4.548-4.772-4.548" fill="#92E082" fill-rule="nonzero"/>
        <path d="M45.223 22.14s2.787-1.863 3.357-5.674c3.37 3.505 6.763 2.302 6.763 2.302s-4.12 2.045-3.662 4.833c-2.397-2.247-6.458-1.463-6.458-1.463" fill="#FFD527" fill-rule="nonzero"/>
        <path d="M73.18 23.293s3.328.47 6.337-1.974c.118 4.835 3.45 6.198 3.45 6.198s-4.441-1.222-5.994 1.15c-.251-3.258-3.793-5.374-3.793-5.374" fill="#4A90E2" fill-rule="nonzero"/>
        <path d="M81.744 1.605s1.915 1.853 5.468 1.32c-2.99 3.773-1.637 6.314-1.637 6.314s-2.18-2.93-4.716-1.8c1.898-2.62.885-5.834.885-5.834m23.335 23.736s2.504.945 5.548-.944c-1.225 4.64 1.038 6.437 1.038 6.437s-3.177-1.828-5.05.207c.688-3.15-1.536-5.7-1.536-5.7M63.011 44.01l4.064-1.225 2.83 7.87-4.066 1.05-2.828-7.695z" fill="#02A186" fill-rule="nonzero"/>
        <path d="m56.768.314 4.23.393-.401 8.343-4.163-.555.334-8.18zM33.951 27.693l2.211-3.141 6.502 4.054-2.311 3.015-6.402-3.928z" fill="#92E082" fill-rule="nonzero"/>
        <path fill="#E50000" fill-rule="nonzero" d="m95.791 23.307 2.682 3.262-6.297 5.564-2.518-3.33z"/>
        <path d="M66.404 28.823a2.286 2.286 0 0 0-2.297-2.274c-1.27 0-2.298 1.019-2.298 2.274a2.287 2.287 0 0 0 2.298 2.274 2.282 2.282 0 0 0 2.297-2.274" fill="#02A186" fill-rule="nonzero"/>
        <path d="M75.476 36.705a2.285 2.285 0 0 0-2.296-2.274c-1.27 0-2.298 1.018-2.298 2.274a2.287 2.287 0 0 0 2.298 2.273 2.282 2.282 0 0 0 2.296-2.274" fill="#C12C14" fill-rule="nonzero"/>
        <path d="M75.949 4.69a2.287 2.287 0 0 0-2.298-2.275 2.282 2.282 0 0 0-2.297 2.274 2.286 2.286 0 0 0 2.297 2.274c1.27 0 2.298-1.019 2.298-2.274" fill="#E50000" fill-rule="nonzero"/>
        <path d="M48.023 6.088c0-1.256-1.028-2.274-2.298-2.274s-2.298 1.018-2.298 2.274a2.287 2.287 0 0 0 2.298 2.274 2.282 2.282 0 0 0 2.298-2.274" fill="#AFCFEF" fill-rule="nonzero"/>
        <path d="M98.749 37.918a2.284 2.284 0 0 0-2.297-2.275 2.285 2.285 0 0 0-2.298 2.275c0 1.255 1.029 2.273 2.298 2.273a2.285 2.285 0 0 0 2.297-2.274" fill="#FF9800" fill-rule="nonzero"/>
        <path d="M108.294 16.407a2.285 2.285 0 0 0-2.298-2.274 2.285 2.285 0 0 0-2.297 2.274c0 1.255 1.027 2.273 2.297 2.273a2.282 2.282 0 0 0 2.298-2.274" fill="#FFD527" fill-rule="nonzero"/>
        <path d="M54.049 35.274a2.516 2.516 0 0 0-1.032-.266c-.868-.038-1.747.385-2.044.984-.07.142-.284.574.283 1.237.603.704 1.27.936 1.983.69.667-.229 1.353-.886 1.774-1.847a2.947 2.947 0 0 0-.964-.798m2.68 9.32a1.043 1.043 0 0 1-.466-1.411c.44-.857.894-1.74-.174-4.846-.588.73-1.325 1.28-2.152 1.565-1.558.536-3.125.056-4.3-1.317-.93-1.087-1.136-2.369-.568-3.516.667-1.346 2.329-2.232 4.041-2.158a4.688 4.688 0 0 1 2.22.67c-.526-1.744-3.229-2.89-3.259-2.903a1.043 1.043 0 0 1-.578-1.37 1.064 1.064 0 0 1 1.383-.572c.197.08 4.78 1.985 4.661 5.566-.016.496-.084.99-.203 1.473.13.244.247.503.354.776 1.88 4.825 1.096 6.354.467 7.582-.27.518-.905.723-1.426.46m-1.905-11.352s2.048 1.029 2.902 3.615m-3.095-1.23s1.505 1.052 1.655 3.512" fill="#4A90E2" fill-rule="nonzero"/>
        <path d="M32.176 14.15c-.289 0-.571.066-.84.197-.636.31-1.111.983-1.104 1.566.002.138.008.559.658.854.692.312 1.257.232 1.68-.239.393-.44.645-1.22.593-2.134a2.25 2.25 0 0 0-.987-.243m5.36 6.211c-.472 0-.854-.411-.854-.916 0-.84 0-1.707-1.911-3.707-.154.797-.48 1.515-.97 2.061-.922 1.027-2.223 1.266-3.574.657-1.068-.483-1.69-1.401-1.703-2.519-.017-1.308.85-2.649 2.106-3.261a3.52 3.52 0 0 1 1.843-.347c-1.022-1.154-3.385-.99-3.411-.987-.472.042-.883-.336-.92-.841-.038-.504.312-.947.783-.987.17-.014 4.165-.324 5.4 2.512.172.4.304.813.395 1.228.183.14.363.295.54.465 3.13 3.025 3.13 4.522 3.13 5.726 0 .505-.382.916-.854.916m-5.553-8.1s1.85 0 3.417 1.68m-2.675.255s1.467.23 2.483 2.089" fill="#E50000" fill-rule="nonzero"/>
        <path d="M77.507 14.718c-.054.826.214 1.533.635 1.932.451.426 1.055.498 1.795.214.696-.266.702-.646.704-.771.008-.528-.5-1.137-1.18-1.418a2.34 2.34 0 0 0-.899-.177c-.345 0-.7.074-1.054.219M71.92 19.29c0-1.09 0-2.445 3.346-5.182.19-.154.382-.296.577-.423a5.44 5.44 0 0 1 .425-1.109c1.318-2.569 5.589-2.289 5.77-2.275.503.037.878.437.837.893-.04.457-.48.8-.982.76-.028 0-2.556-.15-3.647.896a4.361 4.361 0 0 1 1.97.313c1.343.554 2.269 1.768 2.252 2.953-.016 1.011-.68 1.842-1.822 2.279-1.443.552-2.835.336-3.82-.595-.523-.493-.871-1.142-1.036-1.865-2.043 1.812-2.043 2.595-2.043 3.355 0 .458-.409.83-.913.83-.505 0-.914-.372-.914-.83m6.849-6.502s-1.979 0-3.653 1.522m2.86.229s-1.568.209-2.654 1.89" fill="#FF9800" fill-rule="nonzero"/>
        <path d="M93.22 12.9c-.065 1.045.247 1.938.737 2.442.524.538 1.224.63 2.083.272.81-.337.816-.817.818-.976.01-.668-.58-1.438-1.37-1.792a2.524 2.524 0 0 0-1.043-.225c-.402 0-.814.093-1.225.278m-6.49 5.781c0-1.377 0-3.09 3.886-6.55.22-.196.443-.375.67-.535.113-.474.277-.946.494-1.404 1.53-3.246 6.49-2.892 6.7-2.876.584.046 1.02.552.973 1.13a1.055 1.055 0 0 1-1.141.962c-.033-.002-2.968-.19-4.236 1.131a4.695 4.695 0 0 1 2.287.396c1.56.7 2.637 2.235 2.615 3.732-.017 1.28-.787 2.33-2.115 2.883-1.675.697-3.292.422-4.435-.752-.607-.626-1.013-1.446-1.203-2.358-2.374 2.289-2.374 3.28-2.374 4.24a1.055 1.055 0 0 1-1.06 1.05 1.055 1.055 0 0 1-1.06-1.049m7.953-8.22s-2.297 0-4.241 1.924m3.32.29s-1.821.263-3.082 2.389" fill="#AFCFEF" fill-rule="nonzero"/>
        <path fill="#FFF" fill-rule="nonzero" d="M51.558 60.128v12.066"/>
        <path d="M51.558 72.359a.164.164 0 0 1-.166-.164v-12.07c0-.088.074-.162.166-.162.091 0 .165.074.165.164v12.067a.165.165 0 0 1-.165.164" fill="#212121" fill-rule="nonzero"/>
        <path fill-opacity=".1" fill="#333" fill-rule="nonzero" d="m102.572 55.065-41.2 6.286-3.448-3.413v28.58l-2.723.514V49.497l47.371-7.183z"/>
        <path fill="#EDEDED" fill-rule="nonzero" d="m62.833 59.382-7.629-9.831 47.37-7.198 8.339 9.13z"/>
        <g fill="#FFF" fill-rule="nonzero">
            <path d="M84.981 69.731a.884.884 0 0 1 0 1.239.855.855 0 0 1-1.221 0 .884.884 0 0 1 0-1.239.856.856 0 0 1 1.221 0zm-5.493-2.319a.884.884 0 0 0 0-1.238.855.855 0 0 0-1.221 0 .884.884 0 0 0 0 1.238.856.856 0 0 0 1.221 0zm11.053 5.042c-.71.28-1.419.561-2.132.832-.153.059-.229.125-.235.31-.028.788-.077 1.576-.117 2.364-.04.805-.689 1.28-1.463 1.073-.753-.202-1.506-.402-2.256-.613-.15-.042-.233-.004-.324.113-.477.613-.961 1.22-1.446 1.827-.529.662-1.3.663-1.836 0-.49-.603-.977-1.209-1.457-1.82-.095-.121-.18-.149-.326-.107-.725.207-1.459.38-2.176.609-.903.288-1.567-.383-1.56-1.152.009-.753-.075-1.506-.109-2.26-.007-.16-.057-.24-.214-.299-.738-.274-1.471-.563-2.205-.85-.707-.277-.961-1.034-.557-1.684.419-.674.847-1.344 1.28-2.009.095-.145.098-.246.001-.392-.43-.649-.85-1.304-1.267-1.961-.44-.692-.207-1.44.546-1.742.724-.29 1.451-.573 2.18-.85.15-.057.205-.13.21-.3.028-.788.061-1.577.117-2.365.059-.84.651-1.26 1.667-1.013.524.142 1.253.334 1.977.544.191.055.305.026.431-.14.46-.604.937-1.195 1.41-1.788.528-.66 1.315-.66 1.839-.003.48.6.965 1.196 1.439 1.801.104.134.194.173.364.123.74-.216 1.484-.417 2.227-.618.79-.214 1.431.26 1.474 1.085.04.78.087 1.558.12 2.337.007.162.064.247.213.302.706.265 1.406.542 2.112.806.83.31 1.083 1.06.603 1.815-.408.641-.813 1.284-1.23 1.919-.095.144-.102.242-.004.39.43.647.85 1.304 1.268 1.96.446.699.202 1.454-.564 1.756zm-11.663-3.55c1.147 0 2.082-.947 2.082-2.111 0-1.164-.934-2.111-2.082-2.111-1.148 0-2.083.947-2.083 2.111.004 1.168.935 2.112 2.083 2.112zm5.87-3.333a.52.52 0 0 0-.066-.723.502.502 0 0 0-.713.066L78.5 71.59a.52.52 0 0 0 .066.724c.213.182.533.15.713-.067l5.469-6.675zm1.705 4.78c0-1.164-.935-2.111-2.082-2.111-1.148 0-2.083.947-2.083 2.111 0 1.164.935 2.112 2.083 2.112 1.147 0 2.082-.948 2.082-2.112z"/>
        </g>
        <text font-family="Roboto-Bold, Roboto" font-size="15" font-weight="bold" fill="#E50000">
                        <tspan x="58" y="22">%</tspan>
                    </text>
    </g>
</svg>
