<svg width="31" height="31" viewBox="0 0 31 31" xmlns="http://www.w3.org/2000/svg">
    <path d="M20.274.003A20.177 20.177 0 0 1 30.999 3.32L31 4.814c-3.078-2.225-6.888-3.542-11.031-3.55C9.519 1.244 1.102 9.582 1.29 19.798A17.835 17.835 0 0 0 5.471 31H3.873C1.45 27.794.013 23.845 0 19.585-.033 8.379 9.41-.186 20.274.003zm-7.519 26.663c.232.351.252.976.038 1.205-.1.109-.216.135-.36.081-.176-.065-.36-.11-.534-.177-.384-.147-.69-.038-.956.248-.24.26-.225.4.104.535.596.245 1.225.376 1.858.49.176.031.46-.031.5.143.047.206-.242.276-.398.38-1.024.68-2.167 1.082-3.365 1.352-.133.03-.316.092-.388-.06-.08-.167.083-.275.205-.368.36-.273.792-.414 1.248-.584-.28-.24-.572-.4-.74-.696-.162-.288-.207-.576-.07-.871.406-.875 1.07-1.511 1.96-1.907.407-.182.69-.087.898.23zm14.3-9.497c1.22.777 1.986 1.903 2.524 3.193.694 1.664.955 3.401 1.01 5.173a7.955 7.955 0 0 1-1.098 2.14l.8.004c-1.177-.012-2.355-.006-3.532-.006v.005c-1.1 0-2.2-.019-3.3.008-.563.013-.918-.24-1.116-.706a3.658 3.658 0 0 1-.22-2.172c.095-.486.375-.585.783-.302.257.178.463.404.614.675.08.145.183.224.367.224 1.5-.005 3-.005 4.5.004.193.001.232-.086.228-.231-.034-1.312-.192-2.598-.838-3.779-.369-.673-.917-1.162-1.63-1.479-.395-.176-.45-.271-.362-.683.124-.584.256-1.167.4-1.746.131-.533.391-.627.87-.322zM16.663 24.64c.797.005 1.594.016 2.391.021.161.001.245.074.264.228.011.085.041.17.042.255.004.693.009 1.387.001 2.08-.003.346-.11.445-.46.451-.377.007-.754.002-1.13.002v-.005H16.64c-.236-.002-.373-.101-.373-.352 0-.747-.008-1.494-.01-2.241-.001-.264.109-.44.406-.439zM12.544 8.1c.314 1.897.619 3.77.868 5.651.277 2.098.535 4.2.53 6.32-.002 1.282-.249 2.52-.825 3.685a2.015 2.015 0 0 1-.698.812c-.225.148-.372.073-.488-.13-.083-.147-.092-.31-.087-.475.083-2.727-.073-5.447-.278-8.163l-.074-1.003c-.09-1.17-.207-2.34-.54-3.47-.158-.543-.054-.914.247-1.332.362-.506.678-1.043 1.019-1.564.08-.123.14-.272.325-.332z" fill="#F8E6B2" fill-rule="evenodd"/>
</svg>
