<svg width="20" height="20" viewBox="0 0 20 20" xmlns="http://www.w3.org/2000/svg" xmlns:xlink="http://www.w3.org/1999/xlink">
    <defs>
        <path id="4611tgttwa" d="M0 .323h19.677v18.386H0z"/>
    </defs>
    <g fill="none" fill-rule="evenodd">
        <path d="M16.09 19.645a.45.45 0 0 1-.212-.053l-4.88-2.664a.158.158 0 0 1-.082-.132 84.734 84.734 0 0 1-.02-.592c-.007-.261-.019-.518-.03-.764-.029-.677-.053-1.26.008-1.588a.16.16 0 0 1 .066-.102c.042-.028 1.032-.715 1.374-1.645.425-1.154.072-3.011-.526-4.02-.398-.676-.843-1.003-1.36-1.003-.29 0-.791.258-1.251.983-.625.987-.864 2.822-.522 4.007.264.917 1.26 1.607 1.358 1.673.039.021.069.06.078.105.101.486.095 1.532.072 2.323-.006.202-.013.414-.022.632a.16.16 0 0 1-.082.133l-4.935 2.653a.454.454 0 0 1-.662-.48l1.014-5.873a.138.138 0 0 0-.04-.123l-4.297-4.16a.454.454 0 0 1 .252-.778l5.937-.857a.148.148 0 0 0 .11-.078l2.654-5.344a.454.454 0 0 1 .816 0l2.656 5.345c.02.04.061.07.108.077l5.938.857a.453.453 0 0 1 .369.314.454.454 0 0 1-.117.464l-4.297 4.16a.136.136 0 0 0-.04.122l1.014 5.874a.455.455 0 0 1-.448.534z" fill="#B2B2B2"/>
        <path d="M19.422 7.996a.303.303 0 0 0-.172-.52l-6.149-.874a.31.31 0 0 1-.234-.167l-2.75-5.46a.313.313 0 0 0-.557 0l-2.75 5.46a.312.312 0 0 1-.233.167l-6.149.875a.303.303 0 0 0-.172.519l4.449 4.249c.073.07.107.17.089.27l-1.05 6c-.044.248.223.438.45.32l5.112-2.71c.009-.223.016-.438.022-.644.03-.988.02-1.908-.07-2.335h-.003s-1.174-.753-1.482-1.804c-.362-1.238-.13-3.152.56-4.225.552-.86 1.137-1.08 1.431-1.08.475 0 1.022.226 1.547 1.103.644 1.073 1.022 3.002.558 4.247-.376 1.004-1.44 1.728-1.485 1.757-.082.433-.004 1.374.026 2.368l.02.603 5.054 2.72c.227.118.493-.072.45-.32l-1.05-6a.3.3 0 0 1 .09-.27l4.448-4.25z" fill="#FA4616"/>
        <g transform="translate(0 .323)">
            <mask id="89j325cmhb" fill="#fff">
                <use xlink:href="#4611tgttwa"/>
            </mask>
            <path d="m10.589 15.695 4.97 2.676a.154.154 0 0 0 .16-.014.14.14 0 0 0 .056-.137l-1.05-6a.46.46 0 0 1 .137-.414l4.449-4.25a.135.135 0 0 0 .037-.142.147.147 0 0 0-.12-.1l-6.15-.876a.471.471 0 0 1-.354-.252L9.974.726a.149.149 0 0 0-.135-.081.15.15 0 0 0-.135.08l-2.749 5.46a.473.473 0 0 1-.356.253l-6.148.875a.147.147 0 0 0-.122.1.136.136 0 0 0 .038.144l4.45 4.249a.462.462 0 0 1 .136.414l-1.05 6a.14.14 0 0 0 .056.137.157.157 0 0 0 .162.012l5.027-2.666c.007-.19.014-.373.019-.55.03-1.055.011-1.841-.055-2.231-.246-.17-1.208-.882-1.494-1.857-.383-1.31-.123-3.265.58-4.358.544-.85 1.166-1.153 1.566-1.153.659 0 1.21.386 1.686 1.18.654 1.092 1.057 3.08.57 4.387-.347.93-1.234 1.613-1.487 1.794-.044.312-.02.859.008 1.485.011.252.023.517.03.785l.018.51zm5.04 3.014a.472.472 0 0 1-.22-.054l-5.054-2.72a.162.162 0 0 1-.086-.136 85.374 85.374 0 0 1-.02-.604c-.008-.268-.02-.53-.03-.78-.03-.692-.057-1.289.007-1.623a.163.163 0 0 1 .069-.104c.043-.029 1.068-.73 1.423-1.68.44-1.18.073-3.077-.545-4.108-.413-.69-.873-1.023-1.409-1.023-.3 0-.82.263-1.296 1.003-.647 1.009-.895 2.883-.54 4.094.274.936 1.305 1.641 1.406 1.708.04.022.072.061.08.108.106.497.1 1.565.075 2.373-.005.206-.013.423-.022.645a.163.163 0 0 1-.085.136l-5.111 2.71a.475.475 0 0 1-.503-.037.462.462 0 0 1-.183-.453l1.05-6a.14.14 0 0 0-.041-.125L.144 7.79a.46.46 0 0 1-.122-.475.467.467 0 0 1 .383-.32l6.149-.875a.153.153 0 0 0 .113-.08L9.416.58a.471.471 0 0 1 .423-.259c.18 0 .342.1.423.259l2.75 5.46a.152.152 0 0 0 .112.079l6.15.875c.18.025.326.149.381.32a.46.46 0 0 1-.121.475l-4.45 4.25a.138.138 0 0 0-.042.124l1.05 6a.462.462 0 0 1-.183.453.475.475 0 0 1-.28.092z" fill="#212121" mask="url(#89j325cmhb)"/>
        </g>
    </g>
</svg>
