<svg width="24" height="24" viewBox="0 0 24 24" xmlns="http://www.w3.org/2000/svg">
    <g fill="none" fill-rule="evenodd" opacity=".4">
        <path d="M0 0h24v24H0z"/>
        <path d="M20.75 3.125c.352 0 .648.12.889.361.24.241.361.537.361.889V20c0 .339-.12.632-.361.879s-.537.371-.889.371H3.25c-.352 0-.648-.124-.889-.371A1.217 1.217 0 0 1 2 20V4.375c0-.352.12-.648.361-.889.241-.24.537-.361.889-.361h5v-1.25a.6.6 0 0 1 .186-.44.6.6 0 0 1 .439-.185.6.6 0 0 1 .44.186.6.6 0 0 1 .185.439v1.25h5v-1.25a.6.6 0 0 1 .186-.44.6.6 0 0 1 .439-.185.6.6 0 0 1 .44.186.6.6 0 0 1 .185.439v1.25h5zm0 16.875V4.375h-5V5a.6.6 0 0 1-.186.44.6.6 0 0 1-.439.185.6.6 0 0 1-.44-.186A.6.6 0 0 1 14.5 5v-.625h-5V5a.6.6 0 0 1-.186.44.6.6 0 0 1-.439.185.6.6 0 0 1-.44-.186A.6.6 0 0 1 8.25 5v-.625h-5V20h17.5zm-4.375-8.75a.6.6 0 0 1-.44-.186.6.6 0 0 1-.185-.439v-1.25a.6.6 0 0 1 .186-.44.6.6 0 0 1 .439-.185h1.25a.6.6 0 0 1 .44.186.6.6 0 0 1 .185.439v1.25a.6.6 0 0 1-.186.44.6.6 0 0 1-.439.185h-1.25zm0 5a.6.6 0 0 1-.44-.186.6.6 0 0 1-.185-.439v-1.25a.6.6 0 0 1 .186-.44.6.6 0 0 1 .439-.185h1.25a.6.6 0 0 1 .44.186.6.6 0 0 1 .185.439v1.25a.6.6 0 0 1-.186.44.6.6 0 0 1-.439.185h-1.25zm-3.75-2.5a.6.6 0 0 1 .44.186.6.6 0 0 1 .185.439v1.25a.6.6 0 0 1-.186.44.6.6 0 0 1-.439.185h-1.25a.6.6 0 0 1-.44-.186.6.6 0 0 1-.185-.439v-1.25a.6.6 0 0 1 .186-.44.6.6 0 0 1 .439-.185h1.25zm0-5a.6.6 0 0 1 .44.186.6.6 0 0 1 .185.439v1.25a.6.6 0 0 1-.186.44.6.6 0 0 1-.439.185h-1.25a.6.6 0 0 1-.44-.186.6.6 0 0 1-.185-.439v-1.25a.6.6 0 0 1 .186-.44.6.6 0 0 1 .439-.185h1.25zm-5 0a.6.6 0 0 1 .44.186.6.6 0 0 1 .185.439v1.25a.6.6 0 0 1-.186.44.6.6 0 0 1-.439.185h-1.25a.6.6 0 0 1-.44-.186.6.6 0 0 1-.185-.439v-1.25a.6.6 0 0 1 .186-.44.6.6 0 0 1 .439-.185h1.25zm0 5a.6.6 0 0 1 .44.186.6.6 0 0 1 .185.439v1.25a.6.6 0 0 1-.186.44.6.6 0 0 1-.439.185h-1.25a.6.6 0 0 1-.44-.186.6.6 0 0 1-.185-.439v-1.25a.6.6 0 0 1 .186-.44.6.6 0 0 1 .439-.185h1.25z" fill="#212121"/>
    </g>
</svg>
