<svg width="24" height="24" viewBox="0 0 24 24" xmlns="http://www.w3.org/2000/svg">
    <g fill="none" fill-rule="evenodd" opacity=".4">
        <path d="M0 0h24v24H0z"/>
        <path d="m16.57 18.559.528.293c.351.195.527.449.527.761v1.582c0 .3-.104.55-.313.752a1.03 1.03 0 0 1-.742.303H3.055c-.287 0-.534-.1-.743-.303A1.005 1.005 0 0 1 2 21.195v-1.582c0-.286.176-.534.527-.742l.528-.312 4.043-2.188c-.743-.586-1.257-1.367-1.543-2.344-.287-.976-.43-1.751-.43-2.324V9.066c0-.442.137-.882.41-1.318.274-.436.632-.83 1.074-1.182a5.825 5.825 0 0 1 1.514-.859 4.663 4.663 0 0 1 1.709-.332c.586 0 1.159.11 1.719.332.56.221 1.058.508 1.494.86A4.61 4.61 0 0 1 14.1 7.747c.267.436.4.876.4 1.318v2.637c0 .638-.127 1.432-.38 2.383-.255.95-.746 1.719-1.475 2.305l3.925 2.168zM16.375 21v-1.113a.521.521 0 0 0-.137-.098l-.156-.078a.095.095 0 0 1-.049-.02.638.638 0 0 0-.068-.039l-3.926-2.168a1.32 1.32 0 0 1-.45-.42 1.151 1.151 0 0 1-.194-.576 1.14 1.14 0 0 1 .087-.605c.085-.196.212-.358.381-.488.534-.417.899-1.013 1.094-1.788.195-.774.293-1.41.293-1.904V9.066c0-.455-.342-.976-1.025-1.562a3.563 3.563 0 0 0-2.393-.879c-.885 0-1.683.293-2.393.879-.71.586-1.064 1.107-1.064 1.562v2.637c0 .495.117 1.13.352 1.904.234.775.618 1.37 1.152 1.788.156.13.277.292.361.488.085.195.114.397.088.605-.013.209-.078.4-.195.576-.117.176-.267.31-.45.4l-4.042 2.208a.087.087 0 0 0-.04.01.153.153 0 0 0-.039.029.541.541 0 0 0-.166.078l-.146.098V21h13.125zm4.57-5.547.528.293c.351.195.527.45.527.762v1.562c0 .3-.104.55-.313.752a1.03 1.03 0 0 1-.742.303h-2.07a7.162 7.162 0 0 0-.244-.723 1.27 1.27 0 0 0-.4-.527h2.519v-1.113a5.603 5.603 0 0 0-.137-.088.545.545 0 0 0-.156-.069.123.123 0 0 0-.049-.029.536.536 0 0 1-.068-.03l-3.985-2.167a1.32 1.32 0 0 1-.449-.42 1.151 1.151 0 0 1-.195-.576 1.14 1.14 0 0 1 .088-.606c.084-.195.211-.358.38-.488.535-.43.909-1.032 1.124-1.807.215-.774.322-1.403.322-1.884V5.96c0-.469-.352-.996-1.055-1.582a3.675 3.675 0 0 0-2.422-.879 3.975 3.975 0 0 0-2.383.8 3.068 3.068 0 0 0-.78-.136l-.801-.039c.455-.534 1.041-.983 1.757-1.348a4.81 4.81 0 0 1 2.207-.547c.586 0 1.163.114 1.729.342a6.043 6.043 0 0 1 1.514.87c.442.351.8.748 1.074 1.19.273.444.41.886.41 1.329v2.637c0 .625-.137 1.416-.41 2.373-.274.957-.775 1.722-1.504 2.295l3.984 2.187z" fill="#212121"/>
    </g>
</svg>
