<svg xmlns="http://www.w3.org/2000/svg" viewBox="0 0 210 50.48">
  <defs>
    <style>.a{fill:#ff4612;}.b{fill:#131718;}</style>
  </defs>
  <title>ed-loo</title>
  <path class="a"
    d="M78.93,51.61c0,6.21-5.21,7.68-12.63,7.46.22,2.91,1.65,5.43,5.43,5.43a9.51,9.51,0,0,0,5.47-1.78l1.52,3.6a13.24,13.24,0,0,1-7.56,2.21c-7.34,0-10.08-4.82-10.08-10.94,0-6.73,3.78-12.11,10.72-12.11,4.39,0,7.12,2,7.12,6.12m-7.34-2.3c-3.52,0-4.95,3.26-5.3,6.08.65,0,1.17,0,1.74,0,3.82,0,6.25-1,6.25-3.56,0-1.87-1.09-2.56-2.69-2.56"
    transform="translate(-61.09 -26.89)" />
  <path class="a"
    d="M101.12,63.51c0,.87.21,1.17,1,1.22l1.26.08v3.13H96.91l-.13-2.3-.13,0a6.94,6.94,0,0,1-6,2.91C84.27,68.5,82,64,82,57.95c0-7.64,3.82-12.46,11.46-12.46A24,24,0,0,1,101.12,47ZM96,50a8.61,8.61,0,0,0-3.26-.57c-4.3,0-5.56,4-5.56,8.38,0,3.43.87,6.82,4.47,6.82a4,4,0,0,0,4.34-4Z"
    transform="translate(-61.09 -26.89)" />
  <path class="a"
    d="M123.52,46.05v3.08L112,64.37h8.15c.91,0,1.37-1.21,1.37-1.21l2.17-1.66-.84,6.43H106V64.76l11.51-15.11h-5.82c-1,0-1.17.26-1.17,1.13v2l-4.13-.31V46.05Z"
    transform="translate(-61.09 -26.89)" />
  <path class="a"
    d="M168.41,63.37c0,1,.09,1.17.91,1.3l1.3.13v3.13H164.2l-.13-2.3-.17,0a6.82,6.82,0,0,1-6,2.91c-6.6,0-8.6-5-8.6-10.77,0-7.12,3.6-12.24,10.2-12.24a12.22,12.22,0,0,1,3.82.6V41.62c0-.91-.26-1.13-1.09-1.26l-1.35-.13V37h7.51Zm-5.08-2.69V50.17a8,8,0,0,0-3.43-.78c-4,0-5.34,3.56-5.34,7.86,0,3.87.87,7.34,4.47,7.34,2.73,0,4.3-1.65,4.3-3.91"
    transform="translate(-61.09 -26.89)" />
  <path class="a"
    d="M181,64.5l2.3.18v3.26h-9.81V64.81l1.39-.13c.82-.13,1-.35,1-1.43V50.74c0-1-.26-1.17-1.09-1.3l-1.39-.09v-3.3H181Zm-2.82-27.61a2.93,2.93,0,0,1,3.17,2.91,3,3,0,0,1-3.21,3,3,3,0,1,1,0-5.95"
    transform="translate(-61.09 -26.89)" />
  <path class="a"
    d="M188.25,50.74c0-1-.26-1.17-1.09-1.3l-1.39-.09v-3.3H193v3h0a7.19,7.19,0,0,1,6.64-3.56c4.38,0,6.73,2.34,6.73,7.42V64.55l2.21.13v3.26H199V64.85l1.3-.13c.74-.13,1-.35,1-1.26V54.13c0-2.65-.6-4.39-3.43-4.39a4.48,4.48,0,0,0-4.52,4.64V64.55l2.08.13v3.26h-9.6V64.81l1.35-.13c.83,0,1-.35,1-1.26Z"
    transform="translate(-61.09 -26.89)" />
  <path class="a"
    d="M229.23,51.61c0,6.21-5.21,7.68-12.63,7.46.22,2.91,1.65,5.43,5.43,5.43a9.51,9.51,0,0,0,5.47-1.78l1.52,3.6a13.25,13.25,0,0,1-7.56,2.21c-7.34,0-10.07-4.82-10.07-10.94,0-6.73,3.78-12.11,10.73-12.11,4.38,0,7.12,2,7.12,6.12m-7.34-2.3c-3.51,0-5,3.26-5.3,6.08.65,0,1.17,0,1.74,0,3.82,0,6.25-1,6.25-3.56,0-1.87-1.09-2.56-2.69-2.56"
    transform="translate(-61.09 -26.89)" />
  <path class="a"
    d="M239.57,54.26V64.5l3.47.18v3.26H232.1V64.81l1.3-.13c1-.13,1.09-.44,1.09-1.43V50.65c0-.87-.26-1.08-1-1.22L232,49.35v-3.3h7.12v3.3h0a6.33,6.33,0,0,1,6.17-3.86,8.68,8.68,0,0,1,4,.83v7.25l-4.34.3V51.13c0-.74,0-1-.39-1.13a2.75,2.75,0,0,0-1.21-.22c-2.39,0-3.82,1.91-3.82,4.47"
    transform="translate(-61.09 -26.89)" />
  <path class="a"
    d="M139.23,46.05v3.34l1.91.18L137,62.16h-.13l-3.69-11.51c-.22-.74,0-1.13.7-1.22l1.08-.09v-3.3h-9.29v3.21l1.91.26,7,19-.77,1.82c-.87,2.13-2,2.56-3.91,2.79a6.73,6.73,0,0,1-3.87-.91c-2.76-1.47-3.47-6.08-.43-7.21,1-.36,2.08,1.12,3.35-.57a2.07,2.07,0,0,0-.78-2.94c-3.24-2.29-7.89.52-8.42,4.17-.58,4,.63,8,4,10a11.43,11.43,0,0,0,6.44,1.71c4.27-.26,7-3.56,9.07-9.25l6.43-17.5c.35-.91.57-1.13,1.39-1.26l1-.08V46.05Z"
    transform="translate(-61.09 -26.89)" />
  <path class="b"
    d="M261.27,27.55a1.19,1.19,0,0,0-.94-.66h0a1.19,1.19,0,0,0-.94.66,4.15,4.15,0,0,0-.41,3.21,1.15,1.15,0,0,0,.75.72s.36.07.37.4l-.26,4.35h1l-.26-4.35c0-.33.37-.4.37-.4a1.15,1.15,0,0,0,.75-.72,4.15,4.15,0,0,0-.41-3.21"
    transform="translate(-61.09 -26.89)" />
  <path class="a"
    d="M268.13,31.17a1.2,1.2,0,0,0-.2-1.13h0a1.2,1.2,0,0,0-1.13-.2,4.15,4.15,0,0,0-2.56,2,1.15,1.15,0,0,0,0,1,.45.45,0,0,1,0,.55L261,36.28l.34.34h0l.34.34,2.89-3.25a.46.46,0,0,1,.55,0,1.15,1.15,0,0,0,1,0,4.15,4.15,0,0,0,2-2.56"
    transform="translate(-61.09 -26.89)" />
  <path class="b"
    d="M270.43,38.57a1.2,1.2,0,0,0,.66-.94h0a1.2,1.2,0,0,0-.66-.94,4.15,4.15,0,0,0-3.21-.41,1.15,1.15,0,0,0-.72.75s-.07.36-.4.37l-4.35-.25v.48h0v.49l4.35-.26c.33,0,.4.37.4.37a1.15,1.15,0,0,0,.72.75,4.15,4.15,0,0,0,3.21-.41"
    transform="translate(-61.09 -26.89)" />
  <path class="b"
    d="M266.81,45.43a1.2,1.2,0,0,0,1.13-.2h0a1.2,1.2,0,0,0,.2-1.13,4.15,4.15,0,0,0-2-2.56,1.14,1.14,0,0,0-1,0,.46.46,0,0,1-.55,0l-2.89-3.25-.34.34h0L261,39l3.25,2.89a.45.45,0,0,1,0,.54,1.15,1.15,0,0,0,0,1,4.16,4.16,0,0,0,2.56,2"
    transform="translate(-61.09 -26.89)" />
  <path class="b"
    d="M259.4,47.73a1.2,1.2,0,0,0,.94.66h0a1.2,1.2,0,0,0,.94-.66,4.14,4.14,0,0,0,.41-3.21,1.14,1.14,0,0,0-.75-.72s-.36-.07-.37-.4l.26-4.35h-1l.26,4.35c0,.33-.37.4-.37.4a1.15,1.15,0,0,0-.75.72,4.15,4.15,0,0,0,.41,3.21"
    transform="translate(-61.09 -26.89)" />
  <path class="b"
    d="M252.54,44.11a1.2,1.2,0,0,0,.2,1.13h0a1.2,1.2,0,0,0,1.13.2,4.15,4.15,0,0,0,2.56-2,1.15,1.15,0,0,0,0-1,.46.46,0,0,1,0-.55L259.7,39l-.34-.34h0L259,38.3l-2.89,3.25a.45.45,0,0,1-.55,0,1.15,1.15,0,0,0-1,0,4.15,4.15,0,0,0-2,2.56"
    transform="translate(-61.09 -26.89)" />
  <path class="b"
    d="M250.25,36.7a1.2,1.2,0,0,0-.66.94h0a1.2,1.2,0,0,0,.66.94,4.15,4.15,0,0,0,3.21.41,1.15,1.15,0,0,0,.72-.75s.07-.36.4-.37l4.35.26v-.49h0v-.49l-4.35.26c-.33,0-.4-.37-.4-.37a1.15,1.15,0,0,0-.72-.75,4.15,4.15,0,0,0-3.21.41"
    transform="translate(-61.09 -26.89)" />
  <path class="b"
    d="M253.87,29.84a1.2,1.2,0,0,0-1.13.2h0a1.2,1.2,0,0,0-.2,1.13,4.15,4.15,0,0,0,2,2.56,1.15,1.15,0,0,0,1,0,.46.46,0,0,1,.55,0L259,37l.34-.34h0l.34-.34-3.25-2.89a.45.45,0,0,1,0-.55,1.15,1.15,0,0,0,0-1,4.15,4.15,0,0,0-2.56-2"
    transform="translate(-61.09 -26.89)" />
</svg>