<svg width="12" height="12" viewBox="0 0 12 12" xmlns="http://www.w3.org/2000/svg">
    <path d="M10.239 1.777A5.943 5.943 0 0 0 6.01.027a5.943 5.943 0 0 0-4.227 1.75 5.943 5.943 0 0 0-1.75 4.227c0 1.597.622 3.097 1.75 4.228a5.943 5.943 0 0 0 4.227 1.75 5.943 5.943 0 0 0 4.228-1.75 5.943 5.943 0 0 0 1.75-4.228 5.943 5.943 0 0 0-1.75-4.227zm-.53 7.926a5.195 5.195 0 0 1-3.698 1.532 5.195 5.195 0 0 1-3.698-1.532A5.195 5.195 0 0 1 .78 6.004c0-1.397.543-2.71 1.532-3.698A5.195 5.195 0 0 1 6.01.774c1.398 0 2.71.543 3.699 1.532a5.195 5.195 0 0 1 1.532 3.698c0 1.398-.544 2.71-1.532 3.699zm-3.324-4.82v3.363a.372.372 0 0 1-.374.373.372.372 0 0 1-.373-.373V4.883a.373.373 0 1 1 .747 0zm0-1.494a.375.375 0 0 1-.374.374.375.375 0 0 1-.373-.374c0-.205.168-.373.373-.373.206 0 .374.168.374.373z" fill="#0091FF" fill-rule="nonzero"/>
</svg>
