<?xml version="1.0" encoding="UTF-8"?>
<svg width="14px" height="18px" viewBox="0 0 14 18" version="1.1" xmlns="http://www.w3.org/2000/svg" xmlns:xlink="http://www.w3.org/1999/xlink">
    <title>`</title>
    <g id="Website" stroke="none" stroke-width="1" fill="none" fill-rule="evenodd">
        <g id="Discount-Calculator-2-Website" transform="translate(-713.000000, -387.000000)" fill="#FFFFFF" fill-rule="nonzero">
            <g id="Group-7" transform="translate(540.000000, 285.000000)">
                <g id="Group" transform="translate(159.000000, 89.000000)">
                    <path d="M24.9190028,30.4960938 C20.262523,25.2070312 17.9342831,22.5234375 17.9342831,22.4453125 L17.9342831,22.421875 C18.9636949,22.421875 20.0413603,22.1601562 21.1672794,21.6367188 C21.7704504,21.4023438 22.4017693,20.890625 23.0612362,20.1015625 C23.5598575,19.3203125 23.833295,18.6523438 23.8815487,18.0976562 L26.0288373,18.0976562 C26.0449219,18.0976562 26.422909,17.5585938 27.1627987,16.4804688 C27.1627987,16.4570312 27.142693,16.4414062 27.1024816,16.4335938 L23.7971048,16.4335938 C23.6443015,15.7382812 23.3547794,15.1484375 22.9285386,14.6640625 L26.0288373,14.6640625 C26.1173024,14.59375 26.5033318,14.046875 27.1869256,13.0234375 L27.1869256,13 L15.5819164,13 C15.5577895,13 15.1757812,13.5351562 14.4358915,14.6054688 L14.4358915,14.6640625 L17.5,14.6640625 C18.0147059,14.6640625 18.59375,14.765625 19.2371324,14.96875 C20.1378676,15.3125 20.7450597,15.7929688 21.0587086,16.4101562 L21.0587086,16.4335938 L15.5819164,16.4335938 C15.5658318,16.4335938 15.1757812,16.9726562 14.4117647,18.0507812 C14.4117647,18.0820312 14.4278493,18.0976562 14.4600184,18.0976562 L21.3602941,18.0976562 C21.3602941,18.3476562 21.3120404,18.5898438 21.2155331,18.8242188 C20.5962776,20.4257812 19.0159697,21.2265625 16.4746094,21.2265625 C15.9357767,21.2265625 15.4653033,21.1992188 15.0631893,21.1445312 L15.0390625,21.203125 L15.0390625,22.7617188 C15.0390625,22.7851562 17.3069853,25.3632812 21.8428309,30.4960938 L24.9190028,30.4960938 Z" id="`"></path>
                </g>
            </g>
        </g>
    </g>
</svg>