<svg width="19" height="18" viewBox="0 0 19 18" xmlns="http://www.w3.org/2000/svg" xmlns:xlink="http://www.w3.org/1999/xlink">
    <defs>
        <path d="M17.34 9c0 4.963-3.88 8.987-8.666 8.987C3.888 17.987.01 13.963.01 9S3.889.013 8.674.013C13.46.013 17.34 4.037 17.34 9" id="9air5dhtda"/>
        <path id="bgpg3mtafc" d="M1.897.016.008 5.236l1.979-.067-.718 4.465 2.574-5.75-1.901.06L1.897.017"/>
    </defs>
    <g fill="none" fill-rule="evenodd">
        <path d="M18.643 9c0 4.97-3.886 9-8.679 9s-8.678-4.03-8.678-9S5.17 0 9.964 0c4.793 0 8.679 4.03 8.679 9" fill="#F4B742"/>
        <path d="M17.357 9c0 4.97-3.885 9-8.678 9C3.886 18 0 13.97 0 9s3.886-9 8.679-9 8.678 4.03 8.678 9" fill="#FBE93E"/>
        <g>
            <mask id="8qfk9z0veb" fill="#fff">
                <use xlink:href="#9air5dhtda"/>
            </mask>
            <path d="M1.81 8.688.06 9.984a9.173 9.173 0 0 0 .89 3.093l1.49-1.074a7.32 7.32 0 0 1-.63-3.315M12.363.866l-1.749 1.296c1.13.344 2.14.982 2.947 1.828l1.49-1.074a8.719 8.719 0 0 0-2.688-2.05M3.008 13.032 1.512 14.06l.127.189 1.493-1.035a7.195 7.195 0 0 1-.124-.182m12.952-8.9-1.496 1.027c.028.047.057.093.084.14l1.493-1.034a9.094 9.094 0 0 0-.081-.133M3.37 13.532 1.87 14.564c.392.515.837.984 1.327 1.4l1.58-1.095a7.01 7.01 0 0 1-1.405-1.337m12.898-8.864L14.767 5.7c.283.562.497 1.169.628 1.806l1.58-1.095a9.112 9.112 0 0 0-.706-1.743" fill="#FEF388" mask="url(#8qfk9z0veb)"/>
        </g>
        <path d="M16.071 9A7.071 7.071 0 1 1 1.93 9 7.071 7.071 0 0 1 16.07 9" fill="#FFBE02"/>
        <path d="M2.763 9c0-3.756 2.756-6.828 6.237-7.057a6.346 6.346 0 0 0-.417-.014C4.908 1.929 1.929 5.095 1.929 9s2.979 7.071 6.654 7.071c.14 0 .279-.005.417-.014-3.48-.229-6.237-3.3-6.237-7.057" fill="#BA5E2E"/>
        <path fill="#BA5E2E" d="M9.614 4.5h-.4l-1.5 5.233 1.99-.067-1.122 4.477h.4l2.59-5.786-1.913.07L9.614 4.5"/>
        <path fill="#F4B742" d="M8.971 4.5h-.4l-1.5 5.233 1.99-.067-1.122 4.477h.4l2.59-5.786-1.913.07L8.971 4.5"/>
        <path fill="#FBE93E" d="m8.328 4.5-1.9 5.233 1.99-.067-.721 4.477 2.589-5.765-1.913.061L8.328 4.5"/>
        <g transform="translate(6.429 4.5)">
            <mask id="sif22nkujd" fill="#fff">
                <use xlink:href="#bgpg3mtafc"/>
            </mask>
            <path fill="#FEF388" mask="url(#sif22nkujd)" d="M1.897.016.221 4.646l1.714-1.303L1.897.016M3.679 3.89l-.317.01-1.769 1.282.334-.011L3.68 3.889M3.577 4.48 1.902 5.693l-.408 2.538.599-.437L3.577 4.48"/>
        </g>
    </g>
</svg>
