<svg width="93" height="84" viewBox="0 0 93 84" fill="none" xmlns="http://www.w3.org/2000/svg">
<circle cx="58.5719" cy="49.0367" r="34.0533" fill="#FB4D14" fill-opacity="0.09"/>
<path d="M72.7552 33.6071L73.1885 25.5227C73.1885 24.6602 72.7552 23.9061 71.9961 23.4744L64.7335 19.8097L61.0482 12.5876C60.6149 11.8327 59.8558 11.2943 58.9884 11.4018L50.8587 11.8327L44.0294 7.41298C43.2703 6.98213 42.4038 6.98213 41.6447 7.41298L34.8155 11.8327L26.7945 11.4018C25.9272 11.2943 25.1689 11.8327 24.7348 12.5876L21.0495 19.8097L13.7869 23.4744C13.0277 23.9053 12.5945 24.6602 12.5945 25.5227L13.0277 33.6071L8.58325 40.3982C8.14999 41.1532 8.14999 42.0148 8.58325 42.7697L13.0277 49.5608L12.5945 57.6452C12.5945 58.5077 13.0277 59.2618 13.7869 59.6935L21.0495 63.3583L24.7348 70.5804C25.168 71.3353 25.9272 71.8736 26.7945 71.7661L34.9243 71.3353L41.7535 75.755C42.0786 75.9707 42.5126 76.0783 42.9459 76.0783C43.3792 76.0783 43.8132 75.9708 44.1383 75.755L50.9675 71.3353L59.0973 71.7661C59.9646 71.8736 60.7229 71.3353 61.157 70.5804L64.8423 63.3583L72.1049 59.6935C72.8641 59.2627 73.2973 58.5077 73.2973 57.6452L72.8641 49.5608L77.3086 42.7697C77.7418 42.0148 77.7418 41.1531 77.3086 40.3982L72.7552 33.6071ZM68.7447 47.7285C68.5277 48.1594 68.3115 48.591 68.4196 49.0218L68.8529 56.4597L62.2406 59.8011C61.8074 60.0169 61.4815 60.3402 61.2652 60.771L57.9051 67.3464L50.5337 66.9155C50.1005 66.9155 49.5583 67.023 49.2332 67.2388L42.9462 71.3344L36.7672 67.2381C36.442 67.0223 36.008 66.9148 35.5747 66.9148H35.4666L27.987 67.3456L24.6269 60.7703C24.4099 60.3394 24.0848 60.0153 23.6515 59.8003L17.0393 56.4589L17.4726 49.021C17.4726 48.5902 17.3644 48.0511 17.1474 47.7278L13.0289 41.584L17.1482 35.4394C17.3652 35.0086 17.5815 34.577 17.4733 34.1461L17.0401 26.7082L23.6523 23.3669C24.0856 23.1511 24.4114 22.8278 24.6277 22.3969L27.9878 15.8216L35.4674 16.2524C35.9007 16.2524 36.4428 16.1449 36.7679 15.9291L42.9469 11.8328L49.126 15.9291C49.5592 16.1449 49.9932 16.3599 50.4265 16.2524L57.9061 15.8216L61.2662 22.3969C61.4832 22.8278 61.8083 23.1518 62.2416 23.3669L68.8538 26.7082L68.4198 34.0385C68.4198 34.4694 68.5279 35.0085 68.7449 35.3318L72.8642 41.4764L68.7447 47.7285Z" fill="#FF7A02"/>
<path d="M34.4913 40.1827C38.9358 40.1827 42.5129 36.6255 42.5129 32.2058C42.5129 27.7862 38.9358 24.229 34.4913 24.229C30.0468 24.229 26.4697 27.7862 26.4697 32.2058C26.4697 36.5179 30.0468 40.1827 34.4913 40.1827ZM34.4913 28.4335C36.551 28.4335 38.1766 30.0501 38.1766 32.0982C38.1766 34.1464 36.551 35.763 34.4913 35.763C32.4316 35.763 30.806 34.1464 30.806 32.0982C30.806 30.0501 32.4316 28.4335 34.4913 28.4335Z" fill="#FF7A02"/>
<path d="M51.401 42.9854C46.9565 42.9854 43.3794 46.5425 43.3794 50.9622C43.3794 55.3819 46.9565 58.939 51.401 58.939C55.8454 58.939 59.4225 55.3819 59.4225 50.9622C59.4225 46.6501 55.8454 42.9854 51.401 42.9854ZM51.401 54.7345C49.3412 54.7345 47.7157 53.118 47.7157 51.0698C47.7157 49.0216 49.3413 47.405 51.401 47.405C53.4607 47.405 55.0863 49.0216 55.0863 51.0698C55.0863 53.118 53.4606 54.7345 51.401 54.7345Z" fill="#FF7A02"/>
<path d="M27.54 53.8555L55.3632 26.1875L58.4293 29.2365L30.6061 56.9045L27.54 53.8555Z" fill="#FF7A02"/>
</svg>
